<?xml version="1.0" encoding="UTF-8"?>
<!-- Created with matplotlib (https://matplotlib.org/) -->
<svg width="432pt" height="288pt" version="1.1" viewBox="0 0 432 288" xmlns="http://www.w3.org/2000/svg" xmlns:xlink="http://www.w3.org/1999/xlink">
 <defs>
  <style type="text/css">*{stroke-linecap:butt;stroke-linejoin:round;}</style>
 </defs>
 <g transform="translate(26.799 -1.7866)" stroke-linejoin="round">
  <path d="m0 288h432v-288h-432z" fill="#fff" stroke-linejoin="round"/>
  <path d="m54 252h334.8v-217.44h-334.8z" fill="#eaeaf2" stroke-linejoin="round"/>
  <path d="m54 252v-217.44" clip-path="url(#p539e82c810)" fill="none" stroke="#fff" stroke-linecap="round" stroke-linejoin="round" stroke-width=".8"/>
<!-- 0 -->
  <defs>
   <path id="ArialMT-48" d="m4.1562 35.297q0 12.703 2.6094 20.438 2.6094 7.75 7.75 11.938 5.1562 4.2031 12.969 4.2031 5.7656 0 10.109-2.3281 4.3438-2.3125 7.1719-6.6875 2.8438-4.3594 4.4531-10.641 1.6094-6.2656 1.6094-16.922 0-12.594-2.5938-20.328-2.5781-7.7344-7.7344-11.969-5.1406-4.2188-13.016-4.2188-10.344 0-16.25 7.4219-7.0781 8.9375-7.0781 29.094zm9.0312 0q0-17.625 4.125-23.469 4.125-5.8281 10.172-5.8281 6.0625 0 10.188 5.8594t4.125 23.438q0 17.688-4.125 23.484-4.125 5.8125-10.281 5.8125-6.0469 0-9.6719-5.125-4.5312-6.5312-4.5312-24.172z" stroke-linejoin="round"/>
  </defs>
  <g transform="matrix(.1 0 0 -.1 51.22 262.66)" fill="#262626" stroke-linejoin="round">
   <use width="100%" height="100%" stroke-linejoin="round" xlink:href="#ArialMT-48"/>
  </g>
  <path d="m125.88 252v-217.44" clip-path="url(#p539e82c810)" fill="none" stroke="#fff" stroke-linecap="round" stroke-linejoin="round" stroke-width=".8"/>
<!-- 1000 -->
  <defs>
   <path id="ArialMT-49" d="m37.25 0h-8.7812v56q-3.1719-3.0156-8.3281-6.0469t-9.25-4.5469v8.5q7.375 3.4688 12.891 8.3906 5.5156 4.9375 7.8125 9.5781h5.6562z" stroke-linejoin="round"/>
  </defs>
  <g transform="matrix(.1 0 0 -.1 114.76 262.66)" fill="#262626" stroke-linejoin="round">
   <use width="100%" height="100%" xlink:href="#ArialMT-49"/>
   <use x="55.615234" width="100%" height="100%" xlink:href="#ArialMT-48"/>
   <use x="111.23047" width="100%" height="100%" xlink:href="#ArialMT-48"/>
   <use x="166.8457" width="100%" height="100%" xlink:href="#ArialMT-48"/>
  </g>
  <path d="m197.76 252v-217.44" clip-path="url(#p539e82c810)" fill="none" stroke="#fff" stroke-linecap="round" stroke-linejoin="round" stroke-width=".8"/>
<!-- 2000 -->
  <defs>
   <path id="ArialMT-50" d="m50.344 8.4531v-8.4531h-47.312q-0.09375 3.1719 1.0156 6.1094 1.8125 4.8281 5.7812 9.5156 3.9844 4.6875 11.516 10.844 11.672 9.5625 15.766 15.156 4.1094 5.5938 4.1094 10.578 0 5.2188-3.75 8.7969-3.7344 3.5938-9.7344 3.5938-6.3438 0-10.156-3.8125-3.8125-3.7969-3.8594-10.531l-9.0312 0.92188q0.92188 10.109 6.9688 15.406 6.0625 5.2969 16.281 5.2969 10.297 0 16.297-5.7188 6.0156-5.7031 6.0156-14.156 0-4.2969-1.7656-8.4531-1.75-4.1406-5.8281-8.7344t-13.547-12.594q-7.9219-6.6406-10.172-9.0156-2.2344-2.3594-3.7031-4.75z" stroke-linejoin="round"/>
  </defs>
  <g transform="matrix(.1 0 0 -.1 186.64 262.66)" fill="#262626" stroke-linejoin="round">
   <use width="100%" height="100%" xlink:href="#ArialMT-50"/>
   <use x="55.615234" width="100%" height="100%" xlink:href="#ArialMT-48"/>
   <use x="111.23047" width="100%" height="100%" xlink:href="#ArialMT-48"/>
   <use x="166.8457" width="100%" height="100%" xlink:href="#ArialMT-48"/>
  </g>
  <path d="m269.64 252v-217.44" clip-path="url(#p539e82c810)" fill="none" stroke="#fff" stroke-linecap="round" stroke-linejoin="round" stroke-width=".8"/>
<!-- 3000 -->
  <defs>
   <path id="ArialMT-51" d="m4.2031 18.891 8.7812 1.1719q1.5156-7.4688 5.1562-10.766t8.8594-3.2969q6.2031 0 10.469 4.2969 4.2812 4.2969 4.2812 10.656 0 6.0469-3.9531 9.9688-3.9531 3.9375-10.062 3.9375-2.4844 0-6.2031-0.96875l0.98438 7.7188q0.875-0.10938 1.4062-0.10938 5.625 0 10.109 2.9219 4.5 2.9375 4.5 9.0469 0 4.8281-3.2812 8-3.2656 3.1875-8.4375 3.1875-5.125 0-8.5469-3.2344-3.4219-3.2188-4.3906-9.6562l-8.7969 1.5625q1.6094 8.8281 7.3125 13.688 5.7188 4.8594 14.219 4.8594 5.8594 0 10.781-2.5156 4.9375-2.5156 7.5469-6.8594 2.625-4.3438 2.625-9.2344 0-4.625-2.5-8.4375-2.4844-3.8125-7.3594-6.0625 6.3438-1.4531 9.8594-6.0781 3.5156-4.6094 3.5156-11.547 0-9.375-6.8438-15.891-6.8281-6.5156-17.281-6.5156-9.4219 0-15.656 5.6094-6.2188 5.625-7.0938 14.547z" stroke-linejoin="round"/>
  </defs>
  <g transform="matrix(.1 0 0 -.1 258.52 262.66)" fill="#262626" stroke-linejoin="round">
   <use width="100%" height="100%" xlink:href="#ArialMT-51"/>
   <use x="55.615234" width="100%" height="100%" xlink:href="#ArialMT-48"/>
   <use x="111.23047" width="100%" height="100%" xlink:href="#ArialMT-48"/>
   <use x="166.8457" width="100%" height="100%" xlink:href="#ArialMT-48"/>
  </g>
  <path d="m341.52 252v-217.44" clip-path="url(#p539e82c810)" fill="none" stroke="#fff" stroke-linecap="round" stroke-linejoin="round" stroke-width=".8"/>
<!-- 4000 -->
  <defs>
   <path id="ArialMT-52" d="m32.328 0v17.141h-31.062v8.0625l32.672 46.375h7.1719v-46.375h9.6719v-8.0625h-9.6719v-17.141zm0 25.203v32.266l-22.422-32.266z" stroke-linejoin="round"/>
  </defs>
  <g transform="matrix(.1 0 0 -.1 330.4 262.66)" fill="#262626" stroke-linejoin="round">
   <use width="100%" height="100%" xlink:href="#ArialMT-52"/>
   <use x="55.615234" width="100%" height="100%" xlink:href="#ArialMT-48"/>
   <use x="111.23047" width="100%" height="100%" xlink:href="#ArialMT-48"/>
   <use x="166.8457" width="100%" height="100%" xlink:href="#ArialMT-48"/>
  </g>
  <path d="m54 233.88h334.8" clip-path="url(#p539e82c810)" fill="none" stroke="#fff" stroke-linecap="round" stroke-linejoin="round" stroke-width=".8"/>
<!-- Asia -->
  <defs>
   <path id="ArialMT-65" d="m-0.14062 0 27.484 71.578h10.203l29.297-71.578h-10.781l-8.3594 21.688h-29.922l-7.875-21.688zm20.656 29.391h24.266l-7.4688 19.828q-3.4219 9.0312-5.0781 14.844-1.375-6.8906-3.8594-13.672z" stroke-linejoin="round"/>
   <path id="ArialMT-115" d="m3.0781 15.484 8.6875 1.3594q0.73438-5.2188 4.0781-8t9.3594-2.7812q6.0469 0 8.9688 2.4531 2.9375 2.4688 2.9375 5.7969 0 2.9688-2.5938 4.6875-1.7969 1.1719-8.9844 2.9688-9.6562 2.4531-13.391 4.2344t-5.6719 4.9219q-1.9219 3.1562-1.9219 6.9688 0 3.4531 1.5781 6.4062 1.5938 2.9688 4.3281 4.9219 2.0469 1.5 5.5781 2.5469 3.5469 1.0625 7.6094 1.0625 6.0938 0 10.703-1.7656 4.625-1.75 6.8125-4.7656 2.2031-3 3.0312-8.0156l-8.5938-1.1719q-0.57812 4-3.3906 6.2344-2.8125 2.25-7.9375 2.25-6.0469 0-8.6406-2t-2.5938-4.6875q0-1.7031 1.0781-3.0781 1.0781-1.4062 3.375-2.3438 1.3125-0.48438 7.7656-2.2344 9.3281-2.5 13-4.0938 3.6875-1.5781 5.7812-4.6094 2.1094-3.0156 2.1094-7.5156 0-4.3906-2.5625-8.2812-2.5625-3.875-7.4062-6-4.8281-2.125-10.922-2.125-10.109 0-15.406 4.2031t-6.7656 12.453z" stroke-linejoin="round"/>
   <path id="ArialMT-105" d="m6.6406 61.469v10.109h8.7969v-10.109zm0-61.469v51.859h8.7969v-51.859z" stroke-linejoin="round"/>
   <path id="ArialMT-97" d="m40.438 6.3906q-4.8906-4.1406-9.4062-5.8594-4.5156-1.7031-9.6875-1.7031-8.5469 0-13.141 4.1719t-4.5938 10.672q0 3.8125 1.7344 6.9531 1.7344 3.1562 4.5469 5.0625t6.3281 2.875q2.5781 0.6875 7.8125 1.3281 10.641 1.2656 15.672 3.0156 0.04687 1.8125 0.04687 2.2969 0 5.375-2.5 7.5781-3.3594 2.9688-10 2.9688-6.2031 0-9.1562-2.1719t-4.375-7.6875l-8.5937 1.1719q1.1719 5.5156 3.8594 8.9062t7.7656 5.2188q5.0781 1.8438 11.766 1.8438 6.6406 0 10.781-1.5625 4.1562-1.5625 6.1094-3.9375 1.9531-2.3594 2.7344-5.9844 0.4375-2.2344 0.4375-8.0938v-11.719q0-12.266 0.5625-15.516 0.5625-3.2344 2.2344-6.2188h-9.1875q-1.3594 2.7344-1.75 6.3906zm-0.73438 19.641q-4.7969-1.9531-14.359-3.3281-5.4219-0.78125-7.6719-1.7656-2.2344-0.96875-3.4688-2.8438-1.2188-1.875-1.2188-4.1719 0-3.5156 2.6562-5.8594 2.6719-2.3438 7.7969-2.3438 5.0781 0 9.0312 2.2188t5.8125 6.0781q1.4219 2.9844 1.4219 8.7812z" stroke-linejoin="round"/>
  </defs>
  <g transform="matrix(.1 0 0 -.1 31.047 237.46)" fill="#262626" stroke-linejoin="round">
   <use width="100%" height="100%" xlink:href="#ArialMT-65"/>
   <use x="66.699219" width="100%" height="100%" xlink:href="#ArialMT-115"/>
   <use x="116.69922" width="100%" height="100%" xlink:href="#ArialMT-105"/>
   <use x="138.91602" width="100%" height="100%" xlink:href="#ArialMT-97"/>
  </g>
  <path d="m54 197.64h334.8" clip-path="url(#p539e82c810)" fill="none" stroke="#fff" stroke-linecap="round" stroke-linejoin="round" stroke-width=".8"/>
<!-- Africa -->
  <defs>
   <path id="ArialMT-102" d="m8.6875 0v45.016h-7.7656v6.8438h7.7656v5.5156q0 5.2188 0.9375 7.7656 1.2656 3.4219 4.4531 5.5312 3.2031 2.125 8.9688 2.125 3.7188 0 8.2031-0.875l-1.3125-7.6562q-2.7344 0.48438-5.1875 0.48438-4 0-5.6562-1.7188-1.6562-1.7031-1.6562-6.3906v-4.7812h10.109v-6.8438h-10.109v-45.016z" stroke-linejoin="round"/>
   <path id="ArialMT-114" d="m6.5 0v51.859h7.9062v-7.8594q3.0312 5.5156 5.5938 7.2656 2.5625 1.7656 5.6406 1.7656 4.4375 0 9.0312-2.8281l-3.0312-8.1562q-3.2188 1.9062-6.4375 1.9062-2.8906 0-5.1875-1.7344t-3.2656-4.8125q-1.4688-4.6875-1.4688-10.25v-27.156z" stroke-linejoin="round"/>
   <path id="ArialMT-99" d="m40.438 19 8.6406-1.125q-1.4219-8.9375-7.2656-14-5.8281-5.0469-14.328-5.0469-10.641 0-17.109 6.9531-6.4688 6.9688-6.4688 19.953 0 8.3906 2.7812 14.688 2.7812 6.3125 8.4688 9.4531 5.6875 3.1562 12.391 3.1562 8.4375 0 13.812-4.2812 5.375-4.2656 6.8906-12.125l-8.5469-1.3281q-1.2188 5.2344-4.3281 7.8594-3.0938 2.6406-7.5 2.6406-6.6406 0-10.797-4.7656-4.1406-4.75-4.1406-15.047 0-10.453 4-15.188 4.0156-4.7344 10.453-4.7344 5.1719 0 8.6406 3.1719t4.4062 9.7656z" stroke-linejoin="round"/>
  </defs>
  <g transform="matrix(.1 0 0 -.1 24.939 201.22)" fill="#262626" stroke-linejoin="round">
   <use width="100%" height="100%" xlink:href="#ArialMT-65"/>
   <use x="66.699219" width="100%" height="100%" xlink:href="#ArialMT-102"/>
   <use x="94.482422" width="100%" height="100%" xlink:href="#ArialMT-114"/>
   <use x="127.7832" width="100%" height="100%" xlink:href="#ArialMT-105"/>
   <use x="150" width="100%" height="100%" xlink:href="#ArialMT-99"/>
   <use x="200" width="100%" height="100%" xlink:href="#ArialMT-97"/>
  </g>
  <path d="m54 161.4h334.8" clip-path="url(#p539e82c810)" fill="none" stroke="#fff" stroke-linecap="round" stroke-linejoin="round" stroke-width=".8"/>
<!-- Europe -->
  <defs>
   <path id="ArialMT-69" d="m7.9062 0v71.578h51.766v-8.4375h-42.281v-21.922h39.594v-8.4062h-39.594v-24.359h43.938v-8.4531z" stroke-linejoin="round"/>
   <path id="ArialMT-117" d="m40.578 0v7.625q-6.0625-8.7969-16.453-8.7969-4.5938 0-8.5781 1.75-3.9688 1.7656-5.9062 4.4219-1.9219 2.6719-2.7031 6.5312-0.54688 2.5781-0.54688 8.2031v32.125h8.7969v-28.766q0-6.875 0.53125-9.2812 0.82812-3.4531 3.5156-5.4375t6.6406-1.9844 7.4219 2.0312 4.9062 5.5156q1.4531 3.5 1.4531 10.141v27.781h8.7812v-51.859z" stroke-linejoin="round"/>
   <path id="ArialMT-111" d="m3.3281 25.922q0 14.406 8 21.344 6.6875 5.7656 16.312 5.7656 10.688 0 17.469-7.0156 6.7969-7 6.7969-19.359 0-10-3-15.75-3-5.7344-8.75-8.9062-5.7344-3.1719-12.516-3.1719-10.891 0-17.609 6.9844-6.7031 6.9844-6.7031 20.109zm9.0312 0q0-9.9531 4.3438-14.906t10.938-4.9531q6.5469 0 10.891 4.9688 4.3438 4.9844 4.3438 15.188 0 9.625-4.375 14.578t-10.859 4.9531q-6.5938 0-10.938-4.9375-4.3438-4.9219-4.3438-14.891z" stroke-linejoin="round"/>
   <path id="ArialMT-112" d="m6.5938-19.875v71.734h8v-6.7344q2.8438 3.9531 6.4062 5.9219 3.5625 1.9844 8.6406 1.9844 6.6406 0 11.719-3.4219t7.6562-9.6562q2.5938-6.2188 2.5938-13.641 0-7.9531-2.8594-14.328-2.8438-6.375-8.2969-9.7656-5.4375-3.3906-11.453-3.3906-4.3906 0-7.8906 1.8594-3.4844 1.8594-5.7344 4.6875v-25.25zm7.9531 45.516q0-10.016 4.0469-14.797 4.0625-4.7812 9.8281-4.7812 5.8594 0 10.031 4.9531t4.1719 15.359q0 9.9062-4.0781 14.828-4.0781 4.9375-9.7344 4.9375-5.625 0-9.9531-5.25-4.3125-5.25-4.3125-15.25z" stroke-linejoin="round"/>
   <path id="ArialMT-101" d="m42.094 16.703 9.0781-1.125q-2.1406-7.9531-7.9531-12.359-5.8125-4.3906-14.844-4.3906-11.375 0-18.047 7-6.6719 7.0156-6.6719 19.656 0 13.094 6.7344 20.312 6.75 7.2344 17.484 7.2344 10.406 0 17-7.0781t6.5938-19.922q0-0.78125-0.04687-2.3438h-38.672q0.48438-8.5469 4.8281-13.094 4.3438-4.5312 10.844-4.5312 4.8281 0 8.25 2.5312 3.4219 2.5469 5.4219 8.1094zm-28.859 14.203h28.953q-0.57812 6.5469-3.3125 9.8125-4.2031 5.0781-10.891 5.0781-6.0625 0-10.188-4.0469t-4.5625-10.844z" stroke-linejoin="round"/>
  </defs>
  <g transform="matrix(.1 0 0 -.1 18.256 164.98)" fill="#262626" stroke-linejoin="round">
   <use width="100%" height="100%" xlink:href="#ArialMT-69"/>
   <use x="66.699219" width="100%" height="100%" xlink:href="#ArialMT-117"/>
   <use x="122.31445" width="100%" height="100%" xlink:href="#ArialMT-114"/>
   <use x="155.61523" width="100%" height="100%" xlink:href="#ArialMT-111"/>
   <use x="211.23047" width="100%" height="100%" xlink:href="#ArialMT-112"/>
   <use x="266.8457" width="100%" height="100%" xlink:href="#ArialMT-101"/>
  </g>
  <path d="m54 125.16h334.8" clip-path="url(#p539e82c810)" fill="none" stroke="#fff" stroke-linecap="round" stroke-linejoin="round" stroke-width=".8"/>
<!-- North America -->
  <defs>
   <path id="ArialMT-78" d="m7.625 0v71.578h9.7031l37.609-56.203v56.203h9.0781v-71.578h-9.7188l-37.594 56.25v-56.25z" stroke-linejoin="round"/>
   <path id="ArialMT-116" d="m25.781 7.8594 1.2656-7.7656q-3.7031-0.78125-6.6406-0.78125-4.7812 0-7.4219 1.5156-2.625 1.5156-3.7031 3.9844t-1.0781 10.375v29.828h-6.4375v6.8438h6.4375v12.844l8.7344 5.2656v-18.109h8.8438v-6.8438h-8.8438v-30.312q0-3.7656 0.46875-4.8438 0.46875-1.0625 1.5156-1.7031t3-0.64062q1.4688 0 3.8594 0.34375z" stroke-linejoin="round"/>
   <path id="ArialMT-104" d="m6.5938 0v71.578h8.7812v-25.672q6.1562 7.125 15.531 7.125 5.7656 0 10.016-2.2812 4.25-2.2656 6.0781-6.2656t1.8281-11.625v-32.859h-8.7812v32.859q0 6.5938-2.8594 9.5938t-8.0781 3q-3.9062 0-7.3594-2.0312-3.4375-2.0156-4.9062-5.4844t-1.4688-9.5625v-28.375z" stroke-linejoin="round"/>
   <path id="ArialMT-109" d="m6.5938 0v51.859h7.8594v-7.2812q2.4375 3.8125 6.4844 6.125 4.0625 2.3281 9.2344 2.3281 5.7656 0 9.4531-2.3906t5.2031-6.6875q6.1562 9.0781 16.016 9.0781 7.7188 0 11.859-4.2812 4.1562-4.2656 4.1562-13.156v-35.594h-8.75v32.672q0 5.2656-0.85938 7.5781-0.84375 2.3281-3.0938 3.7344-2.2344 1.4219-5.2656 1.4219-5.4688 0-9.0938-3.6406-3.6094-3.625-3.6094-11.641v-30.125h-8.7812v33.688q0 5.8594-2.1562 8.7812-2.1406 2.9375-7.0312 2.9375-3.7031 0-6.8594-1.9531-3.1406-1.9531-4.5625-5.7188-1.4219-3.75-1.4219-10.828v-26.906z" stroke-linejoin="round"/>
  </defs>
  <g transform="matrix(.1 0 0 -.1 -13.395 128.74)" fill="#262626" stroke-linejoin="round">
   <use width="100%" height="100%" xlink:href="#ArialMT-78"/>
   <use x="72.216797" width="100%" height="100%" xlink:href="#ArialMT-111"/>
   <use x="127.83203" width="100%" height="100%" xlink:href="#ArialMT-114"/>
   <use x="161.13281" width="100%" height="100%" xlink:href="#ArialMT-116"/>
   <use x="188.91602" width="100%" height="100%" xlink:href="#ArialMT-104"/>
   <use x="244.53125" width="100%" height="100%" xlink:href="#ArialMT-32"/>
   <use x="272.23633" width="100%" height="100%" xlink:href="#ArialMT-65"/>
   <use x="338.93555" width="100%" height="100%" xlink:href="#ArialMT-109"/>
   <use x="422.23633" width="100%" height="100%" xlink:href="#ArialMT-101"/>
   <use x="477.85156" width="100%" height="100%" xlink:href="#ArialMT-114"/>
   <use x="511.15234" width="100%" height="100%" xlink:href="#ArialMT-105"/>
   <use x="533.36914" width="100%" height="100%" xlink:href="#ArialMT-99"/>
   <use x="583.36914" width="100%" height="100%" xlink:href="#ArialMT-97"/>
  </g>
  <path d="m54 88.92h334.8" clip-path="url(#p539e82c810)" fill="none" stroke="#fff" stroke-linecap="round" stroke-linejoin="round" stroke-width=".8"/>
<!-- South America -->
  <defs>
   <path id="ArialMT-83" d="m4.5 23 8.9219 0.78125q0.64062-5.375 2.9531-8.8125 2.3281-3.4375 7.2031-5.5625 4.8906-2.125 11-2.125 5.4062 0 9.5625 1.6094t6.1719 4.4062q2.0312 2.8125 2.0312 6.1406 0 3.3594-1.9531 5.875t-6.4375 4.2344q-2.8906 1.125-12.75 3.4844-9.8594 2.375-13.812 4.4688-5.1406 2.6875-7.6562 6.6562-2.5 3.9844-2.5 8.9219 0 5.4219 3.0625 10.125 3.0781 4.7188 8.9844 7.1562 5.9219 2.4375 13.141 2.4375 7.9531 0 14.031-2.5625 6.0938-2.5625 9.3594-7.5469 3.2656-4.9688 3.5156-11.266l-9.0781-0.6875q-0.73438 6.7812-4.9688 10.25-4.2188 3.4688-12.469 3.4688-8.5938 0-12.531-3.1562-3.9219-3.1406-3.9219-7.5781 0-3.8594 2.7812-6.3594 2.7344-2.4844 14.281-5.0938t15.844-4.5625q6.25-2.8906 9.2188-7.3125 2.9844-4.4062 2.9844-10.172 0-5.7188-3.2656-10.781-3.2656-5.0469-9.4062-7.8594-6.125-2.7969-13.781-2.7969-9.7188 0-16.297 2.8281-6.5625 2.8281-10.297 8.5156-3.7344 5.7031-3.9219 12.875z" stroke-linejoin="round"/>
  </defs>
  <g transform="matrix(.1 0 0 -.1 -15.075 92.499)" fill="#262626" stroke-linejoin="round">
   <use width="100%" height="100%" xlink:href="#ArialMT-83"/>
   <use x="66.699219" width="100%" height="100%" xlink:href="#ArialMT-111"/>
   <use x="122.31445" width="100%" height="100%" xlink:href="#ArialMT-117"/>
   <use x="177.92969" width="100%" height="100%" xlink:href="#ArialMT-116"/>
   <use x="205.71289" width="100%" height="100%" xlink:href="#ArialMT-104"/>
   <use x="261.32812" width="100%" height="100%" xlink:href="#ArialMT-32"/>
   <use x="289.0332" width="100%" height="100%" xlink:href="#ArialMT-65"/>
   <use x="355.73242" width="100%" height="100%" xlink:href="#ArialMT-109"/>
   <use x="439.0332" width="100%" height="100%" xlink:href="#ArialMT-101"/>
   <use x="494.64844" width="100%" height="100%" xlink:href="#ArialMT-114"/>
   <use x="527.94922" width="100%" height="100%" xlink:href="#ArialMT-105"/>
   <use x="550.16602" width="100%" height="100%" xlink:href="#ArialMT-99"/>
   <use x="600.16602" width="100%" height="100%" xlink:href="#ArialMT-97"/>
  </g>
  <path d="m54 52.68h334.8" clip-path="url(#p539e82c810)" fill="none" stroke="#fff" stroke-linecap="round" stroke-linejoin="round" stroke-width=".8"/>
<!-- Oceania -->
  <defs>
   <path id="ArialMT-79" d="m4.8281 34.859q0 17.828 9.5625 27.906 9.5781 10.094 24.719 10.094 9.9219 0 17.875-4.75 7.9531-4.7344 12.125-13.203 4.1875-8.4688 4.1875-19.219 0-10.875-4.4062-19.469-4.3906-8.5938-12.453-13.016-8.0469-4.4219-17.375-4.4219-10.109 0-18.078 4.875-7.9531 4.8906-12.062 13.328-4.0938 8.4531-4.0938 17.875zm9.7656-0.14062q0-12.938 6.9531-20.391 6.9688-7.4375 17.469-7.4375 10.688 0 17.594 7.5156 6.9219 7.5156 6.9219 21.344 0 8.7344-2.9531 15.25t-8.6562 10.109q-5.6875 3.5938-12.766 3.5938-10.047 0-17.312-6.9219-7.25-6.9062-7.25-23.062z" stroke-linejoin="round"/>
   <path id="ArialMT-110" d="m6.5938 0v51.859h7.9062v-7.375q5.7188 8.5469 16.5 8.5469 4.6875 0 8.625-1.6875t5.8906-4.4219 2.7344-6.4844q0.48438-2.4531 0.48438-8.5469v-31.891h-8.7969v31.547q0 5.375-1.0312 8.0312-1.0156 2.6562-3.625 4.2344-2.6094 1.5938-6.125 1.5938-5.625 0-9.7031-3.5625t-4.0781-13.516v-28.328z" stroke-linejoin="round"/>
  </defs>
  <g transform="matrix(.1 0 0 -.1 13.256 56.259)" fill="#262626" stroke-linejoin="round">
   <use width="100%" height="100%" xlink:href="#ArialMT-79"/>
   <use x="77.783203" width="100%" height="100%" xlink:href="#ArialMT-99"/>
   <use x="127.7832" width="100%" height="100%" xlink:href="#ArialMT-101"/>
   <use x="183.39844" width="100%" height="100%" xlink:href="#ArialMT-97"/>
   <use x="239.01367" width="100%" height="100%" xlink:href="#ArialMT-110"/>
   <use x="294.62891" width="100%" height="100%" xlink:href="#ArialMT-105"/>
   <use x="316.8457" width="100%" height="100%" xlink:href="#ArialMT-97"/>
  </g>
<!-- Continent -->
  <defs>
   <path id="ArialMT-67" d="m58.797 25.094 9.4688-2.3906q-2.9844-11.672-10.719-17.797t-18.922-6.125q-11.578 0-18.828 4.7031-7.25 4.7188-11.031 13.656t-3.7812 19.188q0 11.188 4.2656 19.5 4.2812 8.3281 12.156 12.641 7.8906 4.3281 17.359 4.3281 10.75 0 18.062-5.4688 7.3281-5.4688 10.219-15.375l-9.3281-2.2031q-2.5 7.8125-7.2344 11.375-4.7344 3.5781-11.906 3.5781-8.25 0-13.797-3.9688-5.5469-3.9531-7.7969-10.625-2.2344-6.6562-2.2344-13.734 0-9.125 2.6562-15.938t8.2656-10.188q5.625-3.3594 12.172-3.3594 7.9531 0 13.469 4.5781 5.5312 4.5938 7.4844 13.625z" stroke-linejoin="round"/>
  </defs>
  <g transform="matrix(0 -.12 -.12 0 -21.46 168.96)" fill="#262626" stroke-linejoin="round">
   <use width="100%" height="100%" xlink:href="#ArialMT-67"/>
   <use x="72.216797" width="100%" height="100%" xlink:href="#ArialMT-111"/>
   <use x="127.83203" width="100%" height="100%" xlink:href="#ArialMT-110"/>
   <use x="183.44727" width="100%" height="100%" xlink:href="#ArialMT-116"/>
   <use x="211.23047" width="100%" height="100%" xlink:href="#ArialMT-105"/>
   <use x="233.44727" width="100%" height="100%" xlink:href="#ArialMT-110"/>
   <use x="289.0625" width="100%" height="100%" xlink:href="#ArialMT-101"/>
   <use x="344.67773" width="100%" height="100%" xlink:href="#ArialMT-110"/>
   <use x="400.29297" width="100%" height="100%" xlink:href="#ArialMT-116"/>
  </g>
  <path d="m54 242.94h318.86v-18.12h-318.86z" clip-path="url(#p539e82c810)" fill="#001c7f" stroke-linejoin="round"/>
  <path d="m54 206.7h87.405v-18.12h-87.405z" clip-path="url(#p539e82c810)" fill="#001c7f" stroke-linejoin="round"/>
  <path d="m54 170.46h53.047v-18.12h-53.047z" clip-path="url(#p539e82c810)" fill="#001c7f" stroke-linejoin="round"/>
  <path d="m54 134.22h41.618v-18.12h-41.618z" clip-path="url(#p539e82c810)" fill="#001c7f" stroke-linejoin="round"/>
  <path d="m54 97.98h30.333v-18.12h-30.333z" clip-path="url(#p539e82c810)" fill="#001c7f" stroke-linejoin="round"/>
  <path d="m54 61.74h2.868v-18.12h-2.868z" clip-path="url(#p539e82c810)" fill="#001c7f" stroke-linejoin="round"/>
  <path d="m54 252v-217.44" fill="none" stroke-linejoin="round"/>
  <path d="m388.8 252v-217.44" fill="none" stroke-linejoin="round"/>
  <path d="m54 252h334.8" fill="none" stroke-linejoin="round"/>
  <path d="m54 34.56h334.8" fill="none" stroke-linejoin="round"/>
<!-- World population (millions) by continent -->
  <defs>
   <path id="ArialMT-87" d="m20.219 0-19 71.578h9.7188l10.891-46.922q1.75-7.375 3.0312-14.641 2.7344 11.469 3.2188 13.234l13.625 48.328h11.422l10.25-36.219q3.8594-13.484 5.5781-25.344 1.3594 6.7812 3.5625 15.578l11.219 45.984h9.5312l-19.625-71.578h-9.1406l-15.078 54.547q-1.9062 6.8281-2.25 8.3906-1.125-4.9219-2.1094-8.3906l-15.172-54.547z" stroke-linejoin="round"/>
   <path id="ArialMT-108" d="m6.3906 0v71.578h8.7969v-71.578z" stroke-linejoin="round"/>
   <path id="ArialMT-100" d="m40.234 0v6.5469q-4.9375-7.7188-14.5-7.7188-6.2031 0-11.406 3.4219t-8.0625 9.5469q-2.8438 6.125-2.8438 14.078 0 7.7656 2.5781 14.094 2.5938 6.3281 7.7656 9.6875 5.1875 3.375 11.578 3.375 4.6875 0 8.3438-1.9844 3.6719-1.9688 5.9688-5.1406v25.672h8.7344v-71.578zm-27.781 25.875q0-9.9531 4.1875-14.891 4.2031-4.9219 9.9219-4.9219 5.7656 0 9.7812 4.7031 4.0312 4.7188 4.0312 14.375 0 10.656-4.1094 15.625-4.0938 4.9844-10.094 4.9844-5.8594 0-9.7969-4.7812-3.9219-4.7812-3.9219-15.094z" stroke-linejoin="round"/>
   <path id="ArialMT-40" d="m23.391-21.047q-7.2812 9.1875-12.312 21.484-5.0156 12.312-5.0156 25.484 0 11.625 3.75 22.266 4.3906 12.359 13.578 24.609h6.2969q-5.9062-10.156-7.8125-14.5-2.9844-6.7344-4.6875-14.062-2.0938-9.125-2.0938-18.359 0-23.484 14.594-46.922z" stroke-linejoin="round"/>
   <path id="ArialMT-41" d="m12.359-21.047h-6.2969q14.594 23.438 14.594 46.922 0 9.1875-2.0938 18.219-1.6719 7.3281-4.6406 14.062-1.9062 4.3906-7.8594 14.641h6.2969q9.1719-12.25 13.562-24.609 3.7656-10.641 3.7656-22.266 0-13.172-5.0625-25.484-5.0469-12.297-12.266-21.484z" stroke-linejoin="round"/>
   <path id="ArialMT-98" d="m14.703 0h-8.1562v71.578h8.7812v-25.531q5.5781 6.9844 14.219 6.9844 4.7812 0 9.0469-1.9375 4.2812-1.9219 7.0312-5.4219 2.7656-3.4844 4.3281-8.4219 1.5625-4.9219 1.5625-10.547 0-13.328-6.5938-20.609-6.5938-7.2656-15.812-7.2656-9.1875 0-14.406 7.6719zm-0.10938 26.312q0-9.3125 2.5469-13.469 4.1562-6.7812 11.234-6.7812 5.75 0 9.9531 5t4.2031 14.922q0 10.156-4.0312 14.984t-9.7344 4.8281q-5.7656 0-9.9688-5t-4.2031-14.484z" stroke-linejoin="round"/>
   <path id="ArialMT-121" d="m6.2031-19.969-0.98438 8.25q2.8906-0.78125 5.0312-0.78125 2.9375 0 4.6875 0.98438 1.7656 0.96875 2.8906 2.7188 0.82812 1.3281 2.6875 6.5469 0.23438 0.73438 0.78125 2.1562l-19.688 51.953h9.4688l10.797-30.031q2.0938-5.7188 3.7656-12.016 1.5156 6.0625 3.6094 11.812l11.078 30.234h8.7969l-19.734-52.734q-3.1719-8.5469-4.9219-11.766-2.3438-4.3594-5.375-6.375-3.0312-2.0312-7.2344-2.0312-2.5312 0-5.6562 1.0781z" stroke-linejoin="round"/>
  </defs>
  <g transform="matrix(.144 0 0 -.144 95.75 28.56)" fill="#262626" stroke-linejoin="round">
   <use width="100%" height="100%" xlink:href="#ArialMT-87"/>
   <use x="94.369141" width="100%" height="100%" xlink:href="#ArialMT-111"/>
   <use x="149.98438" width="100%" height="100%" xlink:href="#ArialMT-114"/>
   <use x="183.28516" width="100%" height="100%" xlink:href="#ArialMT-108"/>
   <use x="205.50195" width="100%" height="100%" xlink:href="#ArialMT-100"/>
   <use x="261.11719" width="100%" height="100%" xlink:href="#ArialMT-32"/>
   <use x="288.90039" width="100%" height="100%" xlink:href="#ArialMT-112"/>
   <use x="344.51562" width="100%" height="100%" xlink:href="#ArialMT-111"/>
   <use x="400.13086" width="100%" height="100%" xlink:href="#ArialMT-112"/>
   <use x="455.74609" width="100%" height="100%" xlink:href="#ArialMT-117"/>
   <use x="511.36133" width="100%" height="100%" xlink:href="#ArialMT-108"/>
   <use x="533.57812" width="100%" height="100%" xlink:href="#ArialMT-97"/>
   <use x="589.19336" width="100%" height="100%" xlink:href="#ArialMT-116"/>
   <use x="616.97656" width="100%" height="100%" xlink:href="#ArialMT-105"/>
   <use x="639.19336" width="100%" height="100%" xlink:href="#ArialMT-111"/>
   <use x="694.80859" width="100%" height="100%" xlink:href="#ArialMT-110"/>
   <use x="750.42383" width="100%" height="100%" xlink:href="#ArialMT-32"/>
   <use x="778.20703" width="100%" height="100%" xlink:href="#ArialMT-40"/>
   <use x="811.50781" width="100%" height="100%" xlink:href="#ArialMT-109"/>
   <use x="894.80859" width="100%" height="100%" xlink:href="#ArialMT-105"/>
   <use x="917.02539" width="100%" height="100%" xlink:href="#ArialMT-108"/>
   <use x="939.24219" width="100%" height="100%" xlink:href="#ArialMT-108"/>
   <use x="961.45898" width="100%" height="100%" xlink:href="#ArialMT-105"/>
   <use x="983.67578" width="100%" height="100%" xlink:href="#ArialMT-111"/>
   <use x="1039.291" width="100%" height="100%" xlink:href="#ArialMT-110"/>
   <use x="1094.9062" width="100%" height="100%" xlink:href="#ArialMT-115"/>
   <use x="1144.9062" width="100%" height="100%" xlink:href="#ArialMT-41"/>
   <use x="1178.207" width="100%" height="100%" xlink:href="#ArialMT-32"/>
   <use x="1205.9902" width="100%" height="100%" xlink:href="#ArialMT-98"/>
   <use x="1261.6055" width="100%" height="100%" xlink:href="#ArialMT-121"/>
   <use x="1311.6055" width="100%" height="100%" xlink:href="#ArialMT-32"/>
   <use x="1339.3887" width="100%" height="100%" xlink:href="#ArialMT-99"/>
   <use x="1389.3887" width="100%" height="100%" xlink:href="#ArialMT-111"/>
   <use x="1445.0039" width="100%" height="100%" xlink:href="#ArialMT-110"/>
   <use x="1500.6191" width="100%" height="100%" xlink:href="#ArialMT-116"/>
   <use x="1528.4023" width="100%" height="100%" xlink:href="#ArialMT-105"/>
   <use x="1550.6191" width="100%" height="100%" xlink:href="#ArialMT-110"/>
   <use x="1606.2344" width="100%" height="100%" xlink:href="#ArialMT-101"/>
   <use x="1661.8496" width="100%" height="100%" xlink:href="#ArialMT-110"/>
   <use x="1717.4648" width="100%" height="100%" xlink:href="#ArialMT-116"/>
  </g>
 </g>
 <defs>
  <clipPath id="p539e82c810">
   <rect x="54" y="34.56" width="334.8" height="217.44"/>
  </clipPath>
 </defs>
</svg>
